<svg xmlns="http://www.w3.org/2000/svg" viewBox="0 0 135.467 135.467" height="512" width="512"><path d="M106.136 129.607c-2.118-.61-3.94-2.463-4.513-4.591-.192-.713-.285-7.759-.286-21.598l-.001-20.54-.86-.352c-1.175-.483-3.31-2.52-3.946-3.765-.448-.879-1.433-4.89-2.594-10.568l-.312-1.526-1.483 1.322c-2.799 2.495-7.028 4.258-13.162 5.486-2.497.5-3.673.866-4.29 1.334-1.23.933-2.533 1.002-6.346.336-7.19-1.257-11.637-3.043-14.889-5.98-.594-.537-1.126-.93-1.181-.873-.056.056-.592 2.425-1.19 5.262-.637 3.017-1.368 5.734-1.76 6.542-.71 1.46-2.234 2.957-3.876 3.803l-.987.509-.07 20.171c-.068 19.197-.096 20.22-.574 21.183-2.417 4.867-9.279 4.867-11.696 0-.478-.964-.505-2.005-.573-22.276l-.07-21.265-1.172-1.304c-1.428-1.588-2.259-3.685-2.259-5.701 0-2.031 5.646-28.342 6.468-30.144 1.257-2.754 4.154-4.748 7.86-5.41 3.69-.66 7.585.586 10.354 3.311 2.125 2.092 2.736 3.563 3.648 8.791 1.034 5.931 1.849 8.549 3.086 9.919 1.554 1.72 4.541 2.969 9.418 3.938 1.37.273 1.68.248 2.778-.217.68-.288 2.485-.73 4.013-.98 5.182-.853 8.574-2.062 10.276-3.665 1.711-1.61 2.384-3.56 3.483-10.091.928-5.515 1.445-6.812 3.553-8.92 2.393-2.394 5.295-3.639 8.496-3.645 4.332-.009 8.511 2.358 9.91 5.61.863 2.005 6.417 27.978 6.438 30.106.022 2.098-.825 4.14-2.444 5.897l-1.083 1.173-.003 21.931-.003 21.931-.624 1.342a6.475 6.475 0 01-3.982 3.428c-1.469.438-2.263.457-3.552.086zm-55.6-89.68c-5.992-.761-10.584-6.068-10.584-12.231 0-1.717.784-4.426 1.744-6.024 4.074-6.782 13.392-8 18.998-2.483 2.435 2.396 3.592 5.212 3.597 8.75.005 3.518-1.204 6.328-3.764 8.749-2.735 2.587-6.226 3.719-9.992 3.24zm39.687-1.797c-2.295-.742-3.592-1.517-5.156-3.08a12.132 12.132 0 01.002-17.185c6.554-6.553 17.756-3.657 20.349 5.26.228.787.415 2.287.415 3.333 0 3.383-1.177 6.222-3.583 8.639-3.052 3.066-8.036 4.323-12.027 3.033zm-59.928-6.435c-4.149-1.322-4.305-1.35-7.805-1.402-2.47-.036-3.98-.186-4.895-.485-.86-.282-2.238-.435-3.93-.436-5.9-.007-10.26-2.372-12.497-6.777C.21 20.707.133 20.393.146 18.413c.02-2.915.742-4.7 2.79-6.888 3.524-3.768 9.461-5.282 14.659-3.738.764.227 2.33.387 3.705.38 9.704-.053 16.077 7.828 12.403 15.337l-.704 1.439.869 3.734c.478 2.054.924 3.883.991 4.065.17.46.165.46-4.564-1.047zm.56-3.318a98.148 98.148 0 01-.563-2.155l-.428-1.691.986-1.943c.812-1.6.983-2.212.971-3.476-.047-4.976-5.793-8.825-11.899-7.97-7.964 1.114-11.293 8.586-6 13.465 2.27 2.093 5.685 3.067 9.728 2.777 1.91-.137 2.409-.067 4.528.632 2.863.944 2.849.942 2.678.36zM11.01 25.863c-2.103-2.898-2.654-4.518-2.486-7.309.182-3.028 1.642-5.583 4.44-7.77l.927-.724-.926.001c-1.468.002-4.203.737-5.63 1.514-2.42 1.317-4.425 4.336-4.425 6.664 0 3.731 3.717 7.346 8.433 8.201.054.01-.096-.25-.333-.577zm97.998 4.553c0-.13.413-1.963.917-4.071l.918-3.834-.847-1.797c-.742-1.576-.846-2.072-.85-4.045-.005-2.006.088-2.44.854-4.007.587-1.198 1.373-2.231 2.47-3.248 2.855-2.642 5.704-3.698 9.9-3.669 3.18.023 5.38.638 7.692 2.155 2.672 1.752 4.2 3.705 4.983 6.37.566 1.927.531 3.413-.125 5.362-1.773 5.261-6.594 8.192-13.436 8.168-2.93-.01-3.28.05-7.052 1.21-5.545 1.704-5.424 1.672-5.424 1.406zm11.411-5.541c4.169.313 7.338-.646 9.723-2.942 2.405-2.315 3-5.668 1.493-8.402-3.607-6.543-15.192-6.6-18.734-.094-1.314 2.414-1.205 4.702.345 7.24l.75 1.229-.505 1.945c-.277 1.07-.507 2.08-.51 2.243-.002.185 1.033-.016 2.742-.534 2.373-.719 3.01-.812 4.696-.685z" fill="#353535"/></svg>