<svg xmlns="http://www.w3.org/2000/svg" viewBox="0 0 61.098 61.098" height="230.922" width="230.922"><defs><clipPath id="b" clipPathUnits="userSpaceOnUse"><circle r="29.909" cy="121.473" cx="48.293" fill="#fff" stroke="#000" stroke-width=".167"/></clipPath><mask id="a" maskUnits="userSpaceOnUse"><ellipse ry="23.953" rx="29.22" cx="48.799" cy="118.002" fill="#fff" stroke="#000" stroke-width=".497"/></mask></defs><g transform="translate(-16.18 -68.93)"><circle cx="46.729" cy="99.479" r="30.049" fill="#fff"/><g transform="matrix(1.02837 0 0 1.2545 -3.454 -48.742)" mask="url(#a)" clip-path="url(#b)" fill="#f55"><path d="M76.81 100.315l-34.375.05-2.722 11.34-3.519-9.749-4.556 12.617-3.113-9.074-5.142 14.98-5.164 14.959 5.853-.01-.004.01 7.004-.012 2.945.006-.002.01h55.08z"/></g><g style="line-height:1.25"><path aria-label="PLS" font-weight="800" font-size="19.251" font-family="Gilroy" fill="#333" style="-inkscape-font-specification:'Gilroy Ultra-Bold'" d="M35.853 95.89h-6.445v15.518H33.3v-4.877h2.554c3.356 0 5.959-2.372 5.959-5.32 0-2.949-2.603-5.321-5.959-5.321zm0 7.316H33.3v-3.99h2.554c1.192 0 2.067.864 2.067 1.994 0 1.131-.875 1.996-2.067 1.996zm11.792 4.788V95.89h-3.891v15.518h9.971v-3.414zm13.515 3.724c3.697 0 6.324-1.773 6.324-4.766 0-3.28-2.894-4.101-5.472-4.81-2.651-.732-3.065-1.22-3.065-1.93 0-.62.608-1.174 1.824-1.174 1.557 0 2.36.687 2.943 1.796l3.283-1.752c-1.24-2.283-3.429-3.502-6.226-3.502-2.943 0-5.715 1.729-5.715 4.722 0 2.97 2.48 4.079 5.01 4.721 2.554.643 3.526 1.02 3.526 1.973 0 .599-.462 1.264-2.31 1.264-1.921 0-2.967-.865-3.575-2.15l-3.357 1.773c.949 2.284 3.235 3.835 6.81 3.835z"/></g><circle stroke="#333" fill="none" r="30.049" cy="99.479" cx="46.729"/></g></svg>