<?xml version="1.0" encoding="UTF-8" standalone="no"?>
<svg
   xmlns:dc="http://purl.org/dc/elements/1.1/"
   xmlns:cc="http://creativecommons.org/ns#"
   xmlns:rdf="http://www.w3.org/1999/02/22-rdf-syntax-ns#"
   xmlns:svg="http://www.w3.org/2000/svg"
   xmlns="http://www.w3.org/2000/svg"
   xmlns:sodipodi="http://sodipodi.sourceforge.net/DTD/sodipodi-0.dtd"
   xmlns:inkscape="http://www.inkscape.org/namespaces/inkscape"
   inkscape:export-ydpi="200"
   inkscape:export-xdpi="200"
   inkscape:export-filename="D:\Bulk\Uni\GitRepos\pls\src\utils\images\pls_navbar_logo.png"
   inkscape:version="1.0 (4035a4fb49, 2020-05-01)"
   sodipodi:docname="pls_navbar_logo.svg"
   id="svg22"
   version="1.1"
   viewBox="0 0 61.098 61.098"
   height="230.922"
   width="230.922">
  <metadata
     id="metadata26">
    <rdf:RDF>
      <cc:Work
         rdf:about="">
        <dc:format>image/svg+xml</dc:format>
        <dc:type
           rdf:resource="http://purl.org/dc/dcmitype/StillImage" />
      </cc:Work>
    </rdf:RDF>
  </metadata>
  <sodipodi:namedview
     inkscape:current-layer="g20"
     inkscape:window-maximized="1"
     inkscape:window-y="-9"
     inkscape:window-x="-9"
     inkscape:cy="115.461"
     inkscape:cx="115.461"
     inkscape:zoom="3.5942873"
     showgrid="false"
     id="namedview24"
     inkscape:window-height="1001"
     inkscape:window-width="1920"
     inkscape:pageshadow="2"
     inkscape:pageopacity="0"
     guidetolerance="10"
     gridtolerance="10"
     objecttolerance="10"
     borderopacity="1"
     bordercolor="#666666"
     pagecolor="#ffffff" />
  <defs
     id="defs8">
    <clipPath
       id="a"
       clipPathUnits="userSpaceOnUse">
      <circle
         id="circle2"
         r="29.909"
         cy="121.473"
         cx="48.293"
         fill="#fff"
         stroke="#000"
         stroke-width=".167" />
    </clipPath>
    <mask
       id="b"
       maskUnits="userSpaceOnUse">
      <ellipse
         id="ellipse5"
         ry="23.953"
         rx="29.22"
         cx="48.799"
         cy="118.002"
         fill="#fff"
         stroke="#000"
         stroke-width=".497" />
    </mask>
  </defs>
  <g
     id="g20"
     transform="translate(-16.18,-68.93)">
    <circle
       style="fill:#ffffff;fill-opacity:1;stroke:none"
       id="circle18"
       cx="46.729"
       cy="99.478996"
       r="30.049"
       fill="none"
       stroke="#333333" />
    <g
       id="g12"
       transform="matrix(1.02837,0,0,1.2545,-3.454,-48.742)"
       mask="url(#b)"
       clip-path="url(#a)"
       fill="#ff5555">
      <path
         id="path10"
         d="m 76.81,100.315 -34.375,0.05 -2.722,11.34 -3.519,-9.749 -4.556,12.617 -3.113,-9.074 -5.142,14.98 -5.164,14.959 5.853,-0.01 -0.004,0.01 7.004,-0.012 2.945,0.006 -0.002,0.01 h 55.08 z" />
    </g>
    <g
       id="g16"
       style="line-height:1.25">
      <path
         id="path14"
         aria-label="PLS"
         font-weight="800"
         font-size="19.251px"
         font-family="Gilroy"
         fill="#333333"
         stroke-width="0.361"
         style="-inkscape-font-specification:'Gilroy Ultra-Bold'"
         d="m 35.853,95.89 h -6.445 v 15.518 H 33.3 v -4.877 h 2.554 c 3.356,0 5.959,-2.372 5.959,-5.32 0,-2.949 -2.603,-5.321 -5.959,-5.321 z m 0,7.316 H 33.3 v -3.99 h 2.554 c 1.192,0 2.067,0.864 2.067,1.994 0,1.131 -0.875,1.996 -2.067,1.996 z m 11.792,4.788 V 95.89 h -3.891 v 15.518 h 9.971 v -3.414 z m 13.515,3.724 c 3.697,0 6.324,-1.773 6.324,-4.766 0,-3.28 -2.894,-4.101 -5.472,-4.81 -2.651,-0.732 -3.065,-1.22 -3.065,-1.93 0,-0.62 0.608,-1.174 1.824,-1.174 1.557,0 2.36,0.687 2.943,1.796 l 3.283,-1.752 c -1.24,-2.283 -3.429,-3.502 -6.226,-3.502 -2.943,0 -5.715,1.729 -5.715,4.722 0,2.97 2.48,4.079 5.01,4.721 2.554,0.643 3.526,1.02 3.526,1.973 0,0.599 -0.462,1.264 -2.31,1.264 -1.921,0 -2.967,-0.865 -3.575,-2.15 l -3.357,1.773 c 0.949,2.284 3.235,3.835 6.81,3.835 z" />
    </g>
    <circle
       stroke="#333333"
       fill="none"
       r="30.049"
       cy="99.478996"
       cx="46.729"
       id="circle851" />
  </g>
</svg>
