<svg xmlns="http://www.w3.org/2000/svg" viewBox="0 0 81.945 96.608" height="365.131" width="309.714"><g font-weight="800" font-size="10.583" font-family="Gilroy" stroke-width=".265"><g style="line-height:1.25;-inkscape-font-specification:'Gilroy Ultra-Bold'"><path style="-inkscape-font-specification:'Gilroy Ultra-Bold'" d="M28.462 18.518h1.852l-2.52-7.409h-2.158l-2.519 7.409h1.852l.37-1.164h2.752zm-2.614-2.752l.867-2.72.868 2.72z" aria-label="A"/></g><g style="line-height:1.25;-inkscape-font-specification:'Gilroy Ultra-Bold'"><path style="-inkscape-font-specification:'Gilroy Ultra-Bold'" d="M20.438 38.024c-.71 0-1.228.244-1.577.646v-2.614h-1.587v7.408h1.587v-.497c.35.402.868.645 1.577.645 1.386 0 2.53-1.217 2.53-2.794s-1.144-2.794-2.53-2.794zm-.318 4.086c-.73 0-1.259-.498-1.259-1.292 0-.793.53-1.29 1.26-1.29s1.259.497 1.259 1.29c0 .794-.53 1.292-1.26 1.292z" aria-label="b"/></g><g style="line-height:1.25;-inkscape-font-specification:'Gilroy Ultra-Bold'"><path style="-inkscape-font-specification:'Gilroy Ultra-Bold'" d="M37.89 3.429h-3.715v1.482h1.98c-.265.709-.911 1.143-1.895 1.143-1.44 0-2.329-.921-2.329-2.18 0-1.302.932-2.223 2.18-2.223.837 0 1.503.381 1.81.868l1.44-.826C36.736.698 35.54 0 34.122 0c-2.18 0-3.884 1.714-3.884 3.863 0 2.127 1.672 3.842 4 3.842 2.075 0 3.652-1.376 3.652-3.641z" aria-label="G"/></g><g style="line-height:1.25;-inkscape-font-specification:'Gilroy Ultra-Bold'"><path style="-inkscape-font-specification:'Gilroy Ultra-Bold'" d="M57.362 59.868v4.022l-2.858-4.022h-1.27v7.409h1.693v-4.022l2.858 4.022h1.27v-7.409z" aria-label="N"/></g><g style="line-height:1.25;-inkscape-font-specification:'Gilroy Ultra-Bold'"><path style="-inkscape-font-specification:'Gilroy Ultra-Bold'" d="M15.192 70.449c2.127 0 3.852-1.672 3.852-3.853 0-2.18-1.725-3.852-3.852-3.852-2.128 0-3.853 1.672-3.853 3.852 0 2.18 1.725 3.853 3.853 3.853zm0-1.651c-1.207 0-2.16-.879-2.16-2.202s.953-2.201 2.16-2.201c1.206 0 2.159.878 2.159 2.201s-.953 2.202-2.16 2.202z" aria-label="O"/></g><g style="line-height:1.25;-inkscape-font-specification:'Gilroy Ultra-Bold'"><path style="-inkscape-font-specification:'Gilroy Ultra-Bold'" d="M25.96 47.773h-2.964v7.408h2.963c2.043 0 3.599-1.608 3.599-3.704 0-2.095-1.556-3.704-3.599-3.704zm0 5.779h-1.27v-4.149h1.27c1.164 0 1.968.804 1.968 2.074 0 1.27-.804 2.075-1.969 2.075z" aria-label="D"/></g><g style="line-height:1.25;-inkscape-font-specification:'Gilroy Ultra-Bold'"><path style="-inkscape-font-specification:'Gilroy Ultra-Bold'" d="M81.945 31.898H80.02l-1.408 2.858-1.407-2.858h-1.926l2.487 4.562v2.846h1.693V36.46z" aria-label="Y"/></g><g style="line-height:1.25;-inkscape-font-specification:'Gilroy Ultra-Bold'"><path style="-inkscape-font-specification:'Gilroy Ultra-Bold'" d="M28.69 62.215c-.699 0-1.228.254-1.514.645v-2.614H25.59v7.409h1.587v-2.89c0-.751.403-1.09.985-1.09.508 0 .92.307.92.963v3.017h1.588v-3.25c0-1.428-.91-2.19-1.98-2.19z" aria-label="h"/></g><g style="line-height:1.25;-inkscape-font-specification:'Gilroy Ultra-Bold'"><path style="-inkscape-font-specification:'Gilroy Ultra-Bold'" d="M62.393 89.051c-.709 0-1.227.244-1.577.646v-.498H59.23v7.409h1.587v-2.614c.35.402.868.645 1.577.645 1.387 0 2.53-1.217 2.53-2.794s-1.143-2.794-2.53-2.794zm-.317 4.085c-.73 0-1.26-.497-1.26-1.29 0-.795.53-1.292 1.26-1.292s1.26.497 1.26 1.291c0 .794-.53 1.291-1.26 1.291z" aria-label="p"/></g><g style="line-height:1.25;-inkscape-font-specification:'Gilroy Ultra-Bold'"><path style="-inkscape-font-specification:'Gilroy Ultra-Bold'" d="M64.847 13.559a.8.8 0 00.794-.794.8.8 0 00-.794-.794.8.8 0 00-.794.794.8.8 0 00.794.794zm2.01 0a.8.8 0 00.795-.794.8.8 0 00-.794-.794.8.8 0 00-.794.794.8.8 0 00.794.794zm-.052.423v2.89c0 .75-.402 1.09-.984 1.09-.508 0-.921-.308-.921-.964v-3.016h-1.587v3.25c0 1.428.91 2.19 1.979 2.19.698 0 1.227-.254 1.513-.646v.498h1.588v-5.292z" aria-label="ü"/></g><g style="line-height:1.25;-inkscape-font-specification:'Gilroy Ultra-Bold'"><path style="-inkscape-font-specification:'Gilroy Ultra-Bold'" d="M46.128 31.845h-1.905l-.846 1.482H44.9zm-2.868 5.45h3.757c.043-.2.064-.412.064-.634 0-1.598-1.143-2.794-2.688-2.794-1.673 0-2.816 1.217-2.816 2.794s1.122 2.794 2.932 2.794c1.005 0 1.789-.37 2.307-1.09l-1.27-.73c-.212.232-.582.401-1.016.401-.582 0-1.069-.19-1.27-.74zm-.032-1.185c.149-.54.55-.836 1.154-.836.476 0 .952.222 1.122.836z" aria-label="é"/></g><g style="line-height:1.25;-inkscape-font-specification:'Gilroy Ultra-Bold'"><path style="-inkscape-font-specification:'Gilroy Ultra-Bold'" d="M5.443 27.226v-1.524c-1.757-.105-2.572.784-2.572 2.265h-.709v1.524h.71v3.768h1.587V29.49h.984v-1.524h-.984c0-.614.391-.794.984-.74z" aria-label="f"/></g><g style="line-height:1.25;-inkscape-font-specification:'Gilroy Ultra-Bold'"><path style="-inkscape-font-specification:'Gilroy Ultra-Bold'" d="M4.106 74.232v2.614c-.349-.403-.868-.646-1.577-.646C1.143 76.2 0 77.417 0 78.994s1.143 2.794 2.53 2.794c.708 0 1.227-.243 1.576-.646v.498h1.588v-7.408zm-1.26 6.053c-.73 0-1.259-.497-1.259-1.291 0-.794.53-1.291 1.26-1.291s1.26.497 1.26 1.291c0 .794-.53 1.291-1.26 1.291z" aria-label="d"/></g><g style="line-height:1.25;-inkscape-font-specification:'Gilroy Ultra-Bold'"><path style="-inkscape-font-specification:'Gilroy Ultra-Bold'" d="M72.458 47.244h1.588v-7.726h-1.588z" aria-label="l"/></g><g style="line-height:1.25;-inkscape-font-specification:'Gilroy Ultra-Bold'"><path style="-inkscape-font-specification:'Gilroy Ultra-Bold'" d="M70.228 74.37a.962.962 0 00.952-.952.962.962 0 00-.952-.952.962.962 0 00-.953.952c0 .519.434.953.953.953zm-.794 5.758h1.588v-5.292h-1.588z" aria-label="i"/></g><g style="line-height:1.25;-inkscape-font-specification:'Gilroy Ultra-Bold'"><path style="-inkscape-font-specification:'Gilroy Ultra-Bold'" d="M40.443 49.89l-1.894-2.688 1.83-2.604h-1.82l-.92 1.312-.92-1.312h-1.821l1.83 2.604-1.894 2.688h1.82l.985-1.397.984 1.397z" aria-label="x"/></g><g style="line-height:1.25;-inkscape-font-specification:'Gilroy Ultra-Bold'"><path style="-inkscape-font-specification:'Gilroy Ultra-Bold'" d="M48.735 48.638l2.836-4.466v-1.313h-4.974v1.63h2.783l-2.836 4.466v1.313h5.08v-1.63z" aria-label="Z"/></g></g></svg>