<svg xmlns="http://www.w3.org/2000/svg" viewBox="0 0 60.663 60.663" height="229.278" width="229.278"><defs><clipPath id="a" clipPathUnits="userSpaceOnUse"><circle r="29.909" cy="121.473" cx="48.293" fill="#fff" stroke="#000" stroke-width=".167"/></clipPath><mask id="b" maskUnits="userSpaceOnUse"><ellipse ry="23.953" rx="29.22" cx="48.799" cy="118.002" fill="#fff" stroke="#000" stroke-width=".497"/></mask></defs><g transform="translate(-16.398 -69.148)"><circle cx="46.729" cy="99.29" r="30.049" fill="#fff"/><g clip-path="url(#a)" mask="url(#b)" transform="matrix(1.02837 0 0 1.2545 -3.454 -48.742)" fill="#a2c5d2"><path d="M38.826 135.443l-10.303-.023-10.304.018 5.164-14.959 5.142-14.98 5.14 14.983z" fill-rule="evenodd"/><path d="M48.314 135.443l-12.123-.026-12.123.02 6.076-16.728 6.05-16.753 6.047 16.755z" fill-rule="evenodd"/><path d="M89.095 135.443h-55.08l8.42-33.482 34.375-.049z"/></g><g aria-label="PLS" style="line-height:1.25" font-weight="800" font-size="19.251" font-family="Gilroy" fill="#333" stroke-width=".361"><path d="M35.319 89.977h-6.445v18.564h3.89v-5.835h2.555c3.356 0 5.958-2.837 5.958-6.364 0-3.527-2.602-6.365-5.958-6.365zm0 8.751h-2.554v-4.773h2.554c1.191 0 2.067 1.034 2.067 2.387 0 1.352-.876 2.386-2.067 2.386zM47.11 104.457v-14.48h-3.89v18.564h9.97v-4.084zM60.626 108.912c3.697 0 6.323-2.122 6.323-5.702 0-3.925-2.894-4.906-5.472-5.754-2.651-.876-3.064-1.46-3.064-2.308 0-.742.608-1.405 1.824-1.405 1.556 0 2.359.822 2.942 2.148l3.284-2.095c-1.24-2.732-3.43-4.19-6.226-4.19-2.943 0-5.716 2.068-5.716 5.648 0 3.554 2.48 4.88 5.01 5.65 2.554.768 3.527 1.219 3.527 2.36 0 .715-.462 1.51-2.31 1.51-1.922 0-2.968-1.033-3.576-2.571l-3.356 2.121c.948 2.732 3.235 4.588 6.81 4.588z" style="-inkscape-font-specification:'Gilroy Ultra-Bold'"/></g><circle r="30.049" cy="99.479" cx="46.729" fill="none" stroke="#333"/></g></svg>