<svg xmlns="http://www.w3.org/2000/svg" width="285.925" height="136.764" viewBox="0 0 75.651 36.185"><g fill="#a2c5d2"><path d="M22.358 28.612l-10.303-.02-10.304.016 5.164-12.764L12.057 3.06l5.14 12.785z" fill-rule="evenodd" stroke-width=".265"/><path d="M27.31 28.612l-9.855-.023-9.854.018 4.939-14.274L17.458.038l4.916 14.297z" fill-rule="evenodd" stroke-width=".265"/><path d="M72.627 28.612H14.902l8.824-26.799 36.026-.038z" stroke-width=".714"/></g><g style="line-height:1.25" aria-label="PLS" font-weight="800" font-size="19.251" font-family="Gilroy" fill="#333" stroke-width=".361"><path style="-inkscape-font-specification:'Gilroy Ultra-Bold'" d="M29.251 9.97H24.15v13.475h3.08V19.21h2.021c2.657 0 4.717-2.06 4.717-4.62s-2.06-4.62-4.717-4.62zm0 6.352H27.23v-3.465h2.021c.944 0 1.637.75 1.637 1.733 0 .981-.693 1.732-1.637 1.732zM38.585 20.48V9.97h-3.08v13.475h7.893V20.48zM49.283 23.715c2.926 0 5.005-1.54 5.005-4.14 0-2.849-2.29-3.56-4.332-4.177-2.098-.635-2.425-1.059-2.425-1.675 0-.539.481-1.02 1.444-1.02 1.232 0 1.867.597 2.33 1.56l2.598-1.521C52.92 10.759 51.189 9.7 48.975 9.7c-2.33 0-4.524 1.501-4.524 4.1 0 2.58 1.963 3.542 3.965 4.1 2.022.56 2.792.886 2.792 1.714 0 .52-.366 1.097-1.829 1.097-1.52 0-2.349-.75-2.83-1.867l-2.657 1.54c.751 1.983 2.56 3.33 5.39 3.33z"/></g><g style="line-height:1.25" aria-label="Pete's Language Services" font-weight="800" font-size="6.35" font-family="Gilroy" fill="#333" stroke-width=".265"><path style="-inkscape-font-specification:'Gilroy Ultra-Bold'" d="M2.06 30.193H.379v4.445h1.016V33.24h.667c.876 0 1.555-.68 1.555-1.524 0-.845-.679-1.524-1.555-1.524zm0 2.095h-.666v-1.143h.667c.31 0 .54.248.54.572 0 .323-.23.571-.54.571zM4.757 33.431H7.01c.025-.12.038-.248.038-.38 0-.96-.686-1.677-1.613-1.677-1.003 0-1.69.73-1.69 1.676s.674 1.676 1.76 1.676c.603 0 1.073-.222 1.384-.654l-.762-.438c-.127.14-.35.242-.61.242-.349 0-.64-.115-.761-.445zm-.02-.711c.09-.324.33-.502.693-.502.285 0 .571.134.673.502zM9.35 32.377v-.914h-.654v-.89l-.952.286v.604h-.508v.914h.508v1.124c0 .889.362 1.264 1.607 1.137v-.864c-.42.025-.655 0-.655-.273v-1.124zM10.685 33.431h2.254c.026-.12.038-.248.038-.38 0-.96-.686-1.677-1.613-1.677-1.003 0-1.689.73-1.689 1.676s.673 1.676 1.76 1.676c.602 0 1.072-.222 1.384-.654l-.762-.438c-.127.14-.35.242-.61.242-.35 0-.641-.115-.762-.445zm-.02-.711c.09-.324.331-.502.693-.502.286 0 .572.134.673.502zM13.363 31.717h.635l.127-1.524h-.889zM15.387 32.39c0-.115.101-.178.266-.178.21 0 .337.114.426.28l.813-.439c-.267-.45-.724-.68-1.239-.68-.66 0-1.244.35-1.244 1.042 0 1.099 1.562.914 1.562 1.264 0 .127-.115.197-.343.197-.28 0-.457-.134-.54-.375l-.825.47c.247.514.73.755 1.365.755.686 0 1.32-.31 1.32-1.04 0-1.176-1.561-.934-1.561-1.296zM20.097 33.66v-3.467H19.08v4.445h2.603v-.978zM24.368 31.463v.298c-.21-.241-.52-.387-.946-.387-.832 0-1.518.73-1.518 1.676s.686 1.676 1.518 1.676c.425 0 .736-.146.946-.387v.299h.952v-3.175zm-.756 2.362c-.438 0-.756-.299-.756-.775 0-.476.318-.775.756-.775s.756.299.756.775c0 .476-.318.775-.756.775zM27.88 31.374c-.42 0-.737.152-.908.387v-.298h-.953v3.175h.953v-1.734c0-.45.24-.654.59-.654.305 0 .553.184.553.578v1.81h.952v-1.95c0-.857-.546-1.314-1.187-1.314zM32.058 31.463v.323c-.21-.26-.515-.412-.927-.412-.902 0-1.562.736-1.562 1.613 0 .876.66 1.612 1.562 1.612.412 0 .717-.152.927-.412v.292c0 .45-.273.68-.718.68-.419 0-.603-.179-.724-.4l-.812.47c.292.52.844.767 1.505.767.844 0 1.676-.45 1.676-1.517v-3.016zm-.769 2.26c-.45 0-.768-.298-.768-.736 0-.439.318-.737.768-.737.451 0 .769.298.769.737 0 .438-.318.736-.769.736zM35.735 31.463v1.733c0 .451-.242.654-.59.654-.306 0-.553-.184-.553-.578v-1.81h-.953v1.95c0 .857.546 1.314 1.188 1.314.419 0 .736-.152.908-.387v.299h.952v-3.175zM39.697 31.463v.298c-.21-.241-.52-.387-.946-.387-.832 0-1.518.73-1.518 1.676s.686 1.676 1.518 1.676c.425 0 .737-.146.946-.387v.299h.953v-3.175zm-.756 2.362c-.438 0-.755-.299-.755-.775 0-.476.317-.775.755-.775.439 0 .756.299.756.775 0 .476-.317.775-.756.775zM43.679 31.463v.323c-.21-.26-.515-.412-.927-.412-.902 0-1.562.736-1.562 1.613 0 .876.66 1.612 1.562 1.612.412 0 .717-.152.927-.412v.292c0 .45-.273.68-.718.68-.419 0-.603-.179-.724-.4l-.812.47c.292.52.844.767 1.505.767.844 0 1.676-.45 1.676-1.517v-3.016zm-.769 2.26c-.45 0-.768-.298-.768-.736 0-.439.318-.737.768-.737.451 0 .769.298.769.737 0 .438-.318.736-.769.736zM46.156 33.431h2.254c.025-.12.038-.248.038-.38 0-.96-.686-1.677-1.613-1.677-1.003 0-1.689.73-1.689 1.676s.673 1.676 1.759 1.676c.603 0 1.073-.222 1.384-.654l-.762-.438c-.127.14-.349.242-.61.242-.349 0-.64-.115-.761-.445zm-.02-.711c.09-.324.33-.502.693-.502.285 0 .571.134.673.502zM52.163 34.726c.965 0 1.651-.508 1.651-1.365 0-.94-.755-1.175-1.429-1.378-.692-.21-.8-.349-.8-.552 0-.178.16-.337.477-.337.406 0 .616.197.768.515l.857-.502c-.324-.654-.895-1.003-1.625-1.003-.769 0-1.493.495-1.493 1.352 0 .851.648 1.169 1.308 1.353.667.184.921.292.921.565 0 .171-.12.362-.603.362-.502 0-.775-.248-.933-.616l-.877.508c.248.654.845 1.098 1.778 1.098zM55.247 33.431H57.5c.025-.12.038-.248.038-.38 0-.96-.686-1.677-1.613-1.677-1.003 0-1.69.73-1.69 1.676s.674 1.676 1.76 1.676c.603 0 1.073-.222 1.384-.654l-.762-.438c-.127.14-.35.242-.61.242-.349 0-.64-.115-.761-.445zm-.02-.711c.09-.324.33-.502.693-.502.285 0 .571.134.673.502zM59.032 32.028v-.565h-.953v3.175h.953v-1.436c0-.628.558-.787.952-.723v-1.08c-.4 0-.825.203-.952.629zM62.449 31.463l-.66 2.013-.661-2.013h-1.054l1.175 3.175h1.08l1.174-3.175zM64.322 31.183c.312 0 .572-.26.572-.571a.577.577 0 00-.572-.572.577.577 0 00-.571.572c0 .31.26.571.571.571zm-.476 3.455h.953v-3.175h-.953zM67.02 34.726c.622 0 1.162-.323 1.435-.819l-.832-.476c-.102.222-.337.356-.616.356-.413 0-.718-.299-.718-.737s.305-.737.718-.737c.28 0 .508.134.616.356l.832-.483c-.273-.488-.82-.812-1.435-.812-.965 0-1.683.73-1.683 1.676s.718 1.676 1.683 1.676zM69.62 33.431h2.255c.026-.12.038-.248.038-.38 0-.96-.686-1.677-1.613-1.677-1.003 0-1.689.73-1.689 1.676s.673 1.676 1.76 1.676c.602 0 1.072-.222 1.383-.654l-.762-.438c-.127.14-.349.242-.61.242-.348 0-.64-.115-.761-.445zm-.018-.711c.089-.324.33-.502.692-.502.286 0 .571.134.673.502zM73.231 32.39c0-.115.102-.178.267-.178.21 0 .336.114.425.28l.813-.439c-.267-.45-.724-.68-1.238-.68-.66 0-1.245.35-1.245 1.042 0 1.099 1.562.914 1.562 1.264 0 .127-.114.197-.343.197-.279 0-.457-.134-.54-.375l-.825.47c.248.514.73.755 1.365.755.686 0 1.321-.31 1.321-1.04 0-1.176-1.562-.934-1.562-1.296z"/></g><path fill="none" stroke-width=".22" d="M0 0h75.65v36.185H0z"/></svg>